<?xml version="1.0" standalone="no"?>
<!DOCTYPE svg PUBLIC "-//W3C//DTD SVG 20010904//EN"
 "http://www.w3.org/TR/2001/REC-SVG-20010904/DTD/svg10.dtd">
<svg version="1.0" xmlns="http://www.w3.org/2000/svg"
 width="272.000000pt" height="186.000000pt" viewBox="0 0 272.000000 186.000000"
 preserveAspectRatio="xMidYMid meet">

<g transform="translate(0.000000,186.000000) scale(0.100000,-0.100000)"
fill="#000000" stroke="none">
<path d="M1072 1800 c-18 -11 -41 -34 -52 -52 -19 -31 -20 -51 -20 -342 0
-445 -27 -416 390 -416 322 0 333 2 370 63 19 30 20 52 20 352 0 295 -2 322
-19 351 -37 60 -58 64 -373 64 -265 0 -285 -1 -316 -20z m618 -3 c13 -7 35
-28 47 -46 23 -34 23 -38 23 -339 0 -261 -2 -303 -14 -299 -9 4 -17 -2 -21
-13 -3 -11 -18 -29 -32 -40 -24 -19 -40 -20 -305 -20 -184 0 -277 -3 -273 -10
8 -13 -8 -13 -40 2 -53 24 -55 41 -55 378 0 345 2 359 63 385 44 19 570 21
607 2z"/>
<path d="M1322 1467 c-47 -47 -52 -57 -52 -97 l0 -44 40 39 39 38 3 -74 c3
-72 4 -74 31 -77 l27 -3 0 75 c0 42 4 76 8 76 5 0 21 -13 37 -30 37 -38 45
-38 45 4 0 27 -10 43 -55 87 -31 30 -59 55 -63 57 -4 1 -31 -22 -60 -51z"/>
<path d="M205 881 c-73 -45 -70 -28 -73 -382 -4 -461 -33 -429 388 -429 275 0
297 1 327 20 63 38 64 45 61 404 l-3 324 -25 27 c-50 54 -57 55 -362 55 -258
0 -286 -2 -313 -19z m609 -5 c66 -28 66 -26 66 -374 0 -190 -4 -311 -9 -307
-5 3 -12 -4 -16 -15 -3 -11 -18 -29 -32 -40 -24 -19 -40 -20 -304 -20 -213 0
-278 -3 -282 -12 -7 -19 -58 11 -74 42 -9 18 -13 108 -13 338 0 347 1 355 64
386 44 22 550 23 600 2z"/>
<path d="M430 545 l-54 -55 54 -55 c47 -47 60 -55 92 -55 21 0 38 3 38 7 0 4
-14 22 -32 40 l-32 33 77 0 77 0 0 30 0 30 -75 0 c-41 0 -75 3 -75 7 0 4 14
22 32 40 l32 33 -40 0 c-35 0 -46 -7 -94 -55z"/>
<path d="M1081 882 c-19 -9 -44 -30 -55 -45 -20 -27 -21 -43 -24 -343 -4 -455
-33 -424 388 -424 323 0 328 1 367 59 23 34 23 37 23 357 l0 322 -26 32 c-50
59 -56 60 -361 60 -245 0 -282 -2 -312 -18z m604 -6 c19 -8 44 -30 55 -48 19
-31 20 -50 20 -337 0 -261 -2 -302 -14 -298 -9 4 -17 -2 -21 -13 -3 -11 -18
-29 -32 -40 -24 -19 -40 -20 -305 -20 -184 0 -277 -3 -273 -10 8 -13 -21 -13
-46 0 -46 25 -49 49 -49 380 0 345 1 353 64 384 44 22 550 23 601 2z"/>
<path d="M1357 653 c-4 -3 -7 -40 -7 -82 l0 -75 -40 39 -40 39 0 -40 c0 -35 7
-46 58 -97 l58 -57 57 58 c49 49 57 63 57 95 0 20 -4 37 -9 37 -5 0 -22 -16
-38 -35 -17 -19 -33 -32 -36 -28 -4 3 -7 39 -7 80 0 70 -1 73 -23 73 -13 0
-27 -3 -30 -7z"/>
<path d="M1951 882 c-19 -9 -44 -30 -55 -45 -20 -27 -21 -43 -24 -338 -3 -295
-2 -313 17 -352 37 -77 39 -77 381 -77 l302 0 39 39 39 39 0 326 c0 367 -1
371 -70 406 -36 19 -58 20 -317 20 -245 0 -282 -2 -312 -18z m604 -6 c19 -8
44 -30 55 -48 19 -31 20 -50 20 -337 0 -261 -2 -302 -14 -298 -9 4 -17 -2 -21
-13 -3 -11 -18 -29 -32 -40 -24 -19 -40 -20 -306 -20 -240 0 -278 -2 -268 -14
10 -12 8 -13 -11 -9 -37 10 -65 32 -77 62 -8 19 -11 123 -9 343 l3 316 25 27
c14 15 34 31 45 35 11 5 141 9 288 9 211 1 275 -2 302 -13z"/>
<path d="M2238 567 c18 -18 32 -36 32 -40 0 -4 -34 -7 -75 -7 l-75 0 0 -30 0
-30 77 0 77 0 -32 -33 c-18 -18 -32 -36 -32 -40 0 -4 17 -7 38 -7 32 0 45 8
92 55 l54 55 -54 55 c-48 48 -59 55 -94 55 l-40 0 32 -33z"/>
</g>
</svg>
