<?xml version="1.0" standalone="no"?>
<!DOCTYPE svg PUBLIC "-//W3C//DTD SVG 20010904//EN"
 "http://www.w3.org/TR/2001/REC-SVG-20010904/DTD/svg10.dtd">
<svg version="1.0" xmlns="http://www.w3.org/2000/svg"
 width="1024.000000pt" height="1024.000000pt" viewBox="0 0 1024.000000 1024.000000"
 preserveAspectRatio="xMidYMid meet">

<g transform="translate(0.000000,1024.000000) scale(0.100000,-0.100000)"
fill="#FFF" stroke="none">
<path d="M2476 7410 c-1858 -619 -2347 -785 -2375 -808 -20 -16 -49 -51 -66
-77 -27 -43 -30 -57 -30 -125 0 -68 3 -82 30 -125 57 -91 45 -86 800 -338
l700 -234 5 -714 c5 -657 6 -717 23 -750 36 -73 230 -236 457 -384 527 -344
1161 -584 1843 -700 813 -138 1685 -102 2463 100 288 75 666 209 741 264 46
33 91 112 99 173 16 116 -66 240 -181 273 -75 22 -108 16 -283 -51 -374 -144
-751 -238 -1157 -288 -451 -56 -982 -53 -1430 10 -754 104 -1462 377 -1978
762 l-87 65 0 534 c0 293 1 533 3 533 1 0 623 -207 1382 -460 1081 -360 1391
-460 1430 -460 39 0 347 99 1420 456 753 252 1376 459 1383 462 9 3 12 -46 12
-224 l0 -229 -56 -24 c-288 -125 -468 -421 -451 -741 11 -205 94 -382 246
-522 59 -55 168 -128 190 -128 6 0 11 -7 11 -15 0 -8 -102 -421 -226 -918
-196 -785 -225 -909 -221 -958 8 -93 59 -167 142 -205 l50 -24 564 0 c403 0
575 3 603 12 22 6 59 29 82 50 57 49 86 112 86 183 0 39 -68 326 -226 958
-205 820 -224 903 -208 912 147 86 268 198 333 308 18 31 47 96 64 144 26 75
31 106 35 214 4 104 1 140 -17 210 -56 225 -202 408 -409 510 l-82 41 2 311 3
310 682 228 c375 125 701 238 725 251 93 51 143 166 119 273 -15 66 -61 131
-116 162 -22 13 -1086 371 -2365 798 -1838 613 -2336 775 -2375 775 -40 0
-542 -164 -2389 -780z m6174 -1010 c0 -3 -165 -60 -367 -127 l-368 -122 -1525
254 c-1380 231 -1530 254 -1574 245 -163 -34 -251 -207 -182 -356 26 -55 86
-113 138 -131 18 -7 494 -89 1058 -183 564 -94 1030 -172 1035 -174 13 -4
-1974 -666 -2000 -666 -23 0 -3785 1252 -3785 1260 0 3 852 289 1893 636
l1892 631 1893 -631 c1040 -347 1892 -633 1892 -636z m-600 -1820 c50 -25 114
-99 128 -148 51 -170 -67 -332 -244 -332 -230 0 -339 277 -171 439 73 69 197
87 287 41z m-20 -2170 c45 -179 83 -333 86 -342 5 -17 -8 -18 -179 -18 l-185
0 91 362 c64 256 93 356 99 342 4 -10 44 -165 88 -344z"/>
</g>
</svg>
