<svg version="1.1" id="Layer_1" xmlns="http://www.w3.org/2000/svg" xmlns:xlink="http://www.w3.org/1999/xlink" x="0px" y="0px"
	 width="100%" viewBox="0 0 512 512" enable-background="new 0 0 512 512" xml:space="preserve">
<path fill="#000000" opacity="1.000000" stroke="none" 
	d="
M1.000000,419.000000 
	C1.000000,311.311890 1.000000,203.623810 1.361635,95.371918 
	C3.690396,90.819695 5.329766,86.625214 7.684116,82.880203 
	C15.793199,69.981308 27.401535,62.113049 42.817184,62.095657 
	C186.136383,61.933937 329.455933,61.934929 472.775085,62.115540 
	C485.102875,62.131073 495.331268,68.389946 502.778320,77.857544 
	C507.181305,83.455124 509.657410,90.568344 513.000000,97.000000 
	C513.000000,203.354767 513.000000,309.709534 512.630615,416.649048 
	C509.121429,423.666229 506.956482,430.868469 502.622131,436.357758 
	C495.409943,445.491699 485.389923,451.829742 473.502899,451.848938 
	C329.190979,452.081726 184.878586,452.001007 40.566296,451.985748 
	C39.088127,451.985596 37.532032,452.031036 36.144005,451.615356 
	C23.531322,447.838501 12.783433,441.583313 6.635379,429.225311 
	C4.903426,425.743988 2.886315,422.404541 1.000000,419.000000 
M138.500000,92.000000 
	C110.458527,92.000000 82.417053,92.000000 53.309170,92.000000 
	C121.972702,160.130539 189.792664,227.424057 256.653992,293.766388 
	C324.576324,225.844025 391.718292,158.702057 458.420319,92.000000 
	C352.744263,92.000000 246.122131,92.000000 138.500000,92.000000 
M377.499969,339.000031 
	C357.740234,319.238647 337.980469,299.477295 317.928864,279.424042 
	C302.218384,295.180023 286.610382,310.406891 271.528931,326.138580 
	C264.011292,333.980316 251.928116,333.982300 244.354599,326.034363 
	C230.795029,311.804504 216.629898,298.152252 202.753067,284.223480 
	C200.905060,282.368561 199.262497,280.308960 197.992157,278.872559 
	C149.843323,327.022461 102.345024,374.521820 55.070553,421.797333 
	C189.523804,421.797333 324.524414,421.797333 460.315918,421.797333 
	C432.546661,394.034363 405.273315,366.767181 377.499969,339.000031 
M31.000000,258.500000 
	C31.000000,304.986053 31.000000,351.472107 31.000000,397.847656 
	C78.790146,350.056580 126.179260,302.666565 171.132568,257.712402 
	C124.940437,210.054901 78.363281,162.000153 31.000000,113.134331 
	C31.000000,162.234940 31.000000,209.867477 31.000000,258.500000 
M483.000000,334.500000 
	C483.000000,261.472626 483.000000,188.445282 483.000000,115.447655 
	C435.589325,162.858765 388.426514,210.021988 341.911072,256.537872 
	C388.891174,303.528503 436.095734,350.743713 483.000000,397.658508 
	C483.000000,377.434784 483.000000,356.467377 483.000000,334.500000 
z"/>
<path fill="#FFFFFF" opacity="1.000000" stroke="none" 
	d="
M513.000000,96.531342 
	C509.657410,90.568344 507.181305,83.455124 502.778320,77.857544 
	C495.331268,68.389946 485.102875,62.131073 472.775085,62.115540 
	C329.455933,61.934929 186.136383,61.933937 42.817184,62.095657 
	C27.401535,62.113049 15.793199,69.981308 7.684116,82.880203 
	C5.329766,86.625214 3.690396,90.819695 1.361635,94.904068 
	C1.000000,63.686192 1.000000,32.372387 1.000004,1.059801 
	C171.666672,1.061025 342.333344,1.061025 513.000000,1.061025 
	C513.000000,32.768929 513.000000,64.415802 513.000000,96.531342 
z"/>
<path fill="#FFFFFF" opacity="1.000000" stroke="none" 
	d="
M1.000000,419.468658 
	C2.886315,422.404541 4.903426,425.743988 6.635379,429.225311 
	C12.783433,441.583313 23.531322,447.838501 36.144005,451.615356 
	C37.532032,452.031036 39.088127,451.985596 40.566296,451.985748 
	C184.878586,452.001007 329.190979,452.081726 473.502899,451.848938 
	C485.389923,451.829742 495.409943,445.491699 502.622131,436.357758 
	C506.956482,430.868469 509.121429,423.666229 512.630615,417.116882 
	C513.000000,448.980042 513.000000,480.960083 513.000000,512.939941 
	C342.333313,512.939758 171.666656,512.939758 1.000000,512.939758 
	C1.000000,481.898773 1.000000,450.918060 1.000000,419.468658 
z"/>
<path fill="#FFFFFF" opacity="1.000000" stroke="none" 
	d="
M139.000000,92.000000 
	C246.122131,92.000000 352.744263,92.000000 458.420319,92.000000 
	C391.718292,158.702057 324.576324,225.844025 256.653992,293.766388 
	C189.792664,227.424057 121.972702,160.130539 53.309170,92.000000 
	C82.417053,92.000000 110.458527,92.000000 139.000000,92.000000 
z"/>
<path fill="#FFFFFF" opacity="1.000000" stroke="none" 
	d="
M377.749969,339.250031 
	C405.273315,366.767181 432.546661,394.034363 460.315918,421.797333 
	C324.524414,421.797333 189.523804,421.797333 55.070553,421.797333 
	C102.345024,374.521820 149.843323,327.022461 197.992157,278.872559 
	C199.262497,280.308960 200.905060,282.368561 202.753067,284.223480 
	C216.629898,298.152252 230.795029,311.804504 244.354599,326.034363 
	C251.928116,333.982300 264.011292,333.980316 271.528931,326.138580 
	C286.610382,310.406891 302.218384,295.180023 317.928864,279.424042 
	C337.980469,299.477295 357.740234,319.238647 377.749969,339.250031 
z"/>
<path fill="#FFFFFF" opacity="1.000000" stroke="none" 
	d="
M31.000000,258.000000 
	C31.000000,209.867477 31.000000,162.234940 31.000000,113.134331 
	C78.363281,162.000153 124.940437,210.054901 171.132568,257.712402 
	C126.179260,302.666565 78.790146,350.056580 31.000000,397.847656 
	C31.000000,351.472107 31.000000,304.986053 31.000000,258.000000 
z"/>
<path fill="#FFFFFF" opacity="1.000000" stroke="none" 
	d="
M483.000000,335.000000 
	C483.000000,356.467377 483.000000,377.434784 483.000000,397.658508 
	C436.095734,350.743713 388.891174,303.528503 341.911072,256.537872 
	C388.426514,210.021988 435.589325,162.858765 483.000000,115.447655 
	C483.000000,188.445282 483.000000,261.472626 483.000000,335.000000 
z"/>
</svg>