<?xml version="1.0" standalone="no"?>
<!DOCTYPE svg PUBLIC "-//W3C//DTD SVG 20010904//EN"
 "http://www.w3.org/TR/2001/REC-SVG-20010904/DTD/svg10.dtd">
<svg version="1.0" xmlns="http://www.w3.org/2000/svg"
 width="512.000000pt" height="512.000000pt" viewBox="0 0 512.000000 512.000000"
 preserveAspectRatio="xMidYMid meet">

<g transform="translate(0.000000,512.000000) scale(0.100000,-0.100000)"
fill="#000000" stroke="none">
<path d="M2181 5109 c-1023 -58 -1720 -320 -1768 -665 -5 -40 -3 -48 23 -75
38 -40 170 -127 264 -174 232 -117 548 -199 948 -249 307 -39 507 -49 912 -49
405 0 605 10 912 49 400 50 716 132 948 249 94 47 226 134 264 174 26 27 28
35 23 75 -48 349 -739 606 -1787 666 -197 11 -538 11 -739 -1z"/>
<path d="M410 3636 l0 -474 43 -37 c190 -163 511 -291 925 -369 131 -25 462
-64 652 -77 96 -6 335 -12 530 -12 690 0 1196 62 1600 194 208 69 390 163 508
264 l42 37 0 474 c0 261 -3 474 -6 474 -4 0 -33 -16 -65 -35 -419 -255 -1120
-385 -2079 -385 -959 0 -1660 130 -2079 385 -32 19 -61 35 -65 35 -3 0 -6
-213 -6 -474z"/>
<path d="M410 2411 l0 -479 48 -40 c362 -302 1062 -453 2102 -453 588 0 1013
41 1395 135 311 77 543 181 708 318 l47 40 0 479 0 479 -67 -42 c-315 -193
-814 -319 -1473 -370 -219 -17 -1001 -17 -1220 0 -659 51 -1158 177 -1472 370
l-68 42 0 -479z"/>
<path d="M412 1148 l3 -513 28 -53 c52 -99 135 -174 284 -256 483 -266 1553
-390 2510 -291 783 81 1298 277 1440 547 l28 53 3 513 3 512 -68 -41 c-317
-195 -830 -322 -1493 -371 -229 -17 -951 -17 -1180 0 -663 49 -1176 176 -1493
371 l-68 41 3 -512z"/>
</g>
</svg>
