<svg version="1.1" id="Layer_1" xmlns="http://www.w3.org/2000/svg" xmlns:xlink="http://www.w3.org/1999/xlink" x="0px" y="0px"
	 width="100%" viewBox="0 0 512 512" enable-background="new 0 0 512 512" xml:space="preserve">
<path fill="#000000" opacity="1.000000" stroke="none" 
	d="
M513.000000,230.000000 
	C513.000000,324.235809 513.000000,418.471649 513.000000,513.000000 
	C466.978973,513.000000 420.957336,513.000000 374.801636,512.758423 
	C375.789276,512.241394 376.899841,511.788513 378.034424,511.717072 
	C397.876587,510.468079 414.796478,502.625183 428.560150,488.462677 
	C439.243073,477.470123 449.968506,466.526367 460.818298,455.699799 
	C463.994965,452.529907 467.019379,449.175385 469.834747,445.680847 
	C485.180786,426.633423 484.674072,401.452148 468.791931,382.839447 
	C463.370056,376.485352 457.385468,370.690643 451.438873,364.864655 
	C433.944519,347.725159 417.661194,329.331085 399.120270,313.291168 
	C386.014465,301.953186 370.683441,299.435425 354.173004,304.596344 
	C345.360016,307.351166 338.263947,312.883545 331.804016,319.253235 
	C321.718262,329.198059 311.680450,339.193329 301.749603,349.292328 
	C299.304291,351.779053 297.196442,352.522186 293.932190,350.667419 
	C287.564789,347.049469 280.923096,343.927002 274.779327,339.892059 
	C242.440109,318.653259 214.867447,292.228943 190.568741,262.290253 
	C180.053299,249.334076 170.715378,235.577850 162.993011,220.711166 
	C160.605286,216.114395 161.404587,213.505890 165.007965,210.100540 
	C177.234070,198.546402 189.519684,187.006256 200.260010,174.004288 
	C215.451126,155.614334 215.284592,130.581573 199.675491,112.679222 
	C184.331390,95.080780 167.036713,79.358528 150.744308,62.669518 
	C144.001862,55.762951 137.315018,48.768776 129.772614,42.672504 
	C111.322342,27.759756 87.340767,26.927608 69.043060,41.856560 
	C50.821499,56.723381 35.080948,74.256218 19.199638,91.559891 
	C15.926054,95.126656 13.486002,99.334435 11.216657,103.616066 
	C0.365221,124.089714 0.531569,145.963211 3.765196,167.951706 
	C7.076370,190.467499 14.720376,211.799164 23.669920,232.645569 
	C43.242153,278.235657 70.735016,318.757690 102.847443,356.338806 
	C152.120148,414.002563 211.246429,458.532318 280.368134,489.758392 
	C300.915771,499.040863 322.097778,506.293549 344.436279,510.065857 
	C350.616516,511.109558 357.058014,510.529694 363.000000,513.000000 
	C242.378860,513.000000 121.757706,513.000000 1.068280,513.000000 
	C1.068280,342.443268 1.068280,171.886490 1.068280,1.000000 
	C94.354507,1.000000 187.709412,1.000000 281.271790,1.235637 
	C277.893036,2.942912 274.599121,4.756231 272.540100,8.278521 
	C267.355896,17.146851 271.898346,27.012543 282.861206,29.487524 
	C296.496948,32.565948 310.119263,35.583557 323.305542,40.330818 
	C363.983978,54.975655 398.479187,78.687050 426.879730,111.204170 
	C449.289185,136.861786 465.661652,165.966644 476.115601,198.443710 
	C479.845123,210.030228 481.566559,222.087219 485.114746,233.683716 
	C486.887421,239.477432 491.459839,242.510147 497.473816,242.812546 
	C503.663055,243.123734 508.029602,240.423645 510.762817,234.960114 
	C511.573669,233.339310 512.257812,231.655136 513.000000,230.000000 
M362.890594,172.640717 
	C376.138641,189.136642 385.128632,207.692749 389.877014,228.312683 
	C390.658630,231.706787 391.298035,235.176483 392.518219,238.417328 
	C394.683685,244.168869 400.422729,247.830521 406.120270,247.571869 
	C411.848969,247.311798 416.781403,243.042694 418.821930,237.151764 
	C420.376740,232.663116 418.644379,228.629044 417.780548,224.454010 
	C404.075653,158.213974 349.316956,105.514709 282.910950,94.631767 
	C275.898254,93.482491 269.511627,97.288315 267.173706,104.009628 
	C264.114349,112.804962 269.197906,120.557152 279.720184,122.632805 
	C313.221069,129.241257 340.726685,145.803894 362.890594,172.640717 
z"/>
<path fill="#000000" opacity="1.000000" stroke="none" 
	d="
M287.000000,1.000000 
	C362.260681,1.000000 437.521362,1.000000 513.000000,1.000000 
	C513.000000,76.687424 513.000000,152.375046 512.762939,228.227402 
	C512.221924,227.450043 511.806915,226.528320 511.629822,225.562973 
	C503.403198,180.715851 485.884674,140.012177 457.430573,104.212082 
	C415.094269,50.945850 360.807922,16.995737 294.034760,3.244818 
	C291.637604,2.751164 289.039185,2.695261 287.000000,1.000000 
z"/>
<path fill="#000000" opacity="1.000000" stroke="none" 
	d="
M34.222069,176.557175 
	C30.419504,160.995956 28.757679,145.738800 31.550802,130.197006 
	C33.417492,119.810143 38.487190,111.179443 45.765869,103.804268 
	C57.701946,91.709961 69.630684,79.599602 81.874557,67.820366 
	C93.978020,56.176220 104.721237,56.552692 116.619858,68.456245 
	C135.583832,87.428093 154.547241,106.400528 173.487213,125.396332 
	C178.224319,130.147430 182.707199,135.081894 183.353745,142.248230 
	C183.920166,148.526749 181.304474,153.650208 177.267426,158.086273 
	C168.069092,168.193802 158.294495,177.740204 148.399506,187.161346 
	C145.383392,190.033066 142.260025,192.794800 139.301300,195.723602 
	C130.317764,204.616226 128.892273,213.005585 134.053879,224.814209 
	C143.617996,246.694824 157.095596,266.056152 172.268936,284.318787 
	C197.870590,315.132965 226.811996,342.269257 260.515259,364.133484 
	C269.898285,370.220490 279.842651,375.311707 289.878235,380.175110 
	C298.830292,384.513428 307.719971,382.558075 315.404785,374.981567 
	C326.910126,363.638458 338.287262,352.165344 349.721985,340.750580 
	C350.782745,339.691650 351.844482,338.632233 352.941223,337.611115 
	C363.832489,327.470642 374.426971,327.554779 384.948486,338.044891 
	C404.298462,357.337036 423.615601,376.662537 442.864899,396.055084 
	C456.522552,409.814423 456.402222,420.473907 442.766479,434.260040 
	C432.106842,445.037201 421.147858,455.512238 410.990021,466.793304 
	C397.175690,482.135162 379.444305,486.096252 359.635803,483.934753 
	C318.924652,479.492340 283.147797,461.914581 248.377838,441.932098 
	C190.489807,408.663574 142.528839,364.212494 102.475029,310.996826 
	C81.763962,283.480042 63.765453,254.366119 50.103508,222.678925 
	C43.704033,207.836105 38.081375,192.719910 34.222069,176.557175 
z"/>
</svg>